<svg version="1.2" baseProfile="tiny" viewBox="0 0 15.854 15.855" xmlns:xlink="http://www.w3.org/1999/xlink" xmlns="http://www.w3.org/2000/svg">
<path style="fill:#ffffff;" d="M13.732,8.878c-0.512-0.365-0.585-1.426-0.661-2.549c-0.007-0.106-0.015-0.283-0.022-0.48
		l-0.003-0.061c-0.014-0.342-0.03-0.73-0.047-0.899c-0.024-0.439-0.098-0.88-0.224-1.346L12.73,3.367
		c-0.019-0.079-0.037-0.149-0.072-0.25c-0.036-0.1-0.075-0.199-0.112-0.283c-0.044-0.11-0.094-0.221-0.154-0.34l-0.028-0.049
		c-0.078-0.148-0.152-0.27-0.224-0.374c-0.172-0.26-0.384-0.504-0.668-0.769l-0.081-0.072c-0.191-0.17-0.398-0.323-0.654-0.484
		c-0.03-0.02-0.061-0.039-0.09-0.056c-0.095-0.054-0.199-0.108-0.328-0.169c-0.083-0.039-0.168-0.075-0.252-0.109
		C9.704,0.266,9.319,0.156,8.92,0.088C8.803,0.069,8.684,0.054,8.517,0.035c-0.043-0.006-0.086-0.01-0.128-0.014
		C8.261,0.01,8.123,0.004,7.926,0C7.731,0.004,7.593,0.01,7.465,0.021C7.422,0.025,7.38,0.029,7.338,0.035
		C7.17,0.054,7.051,0.069,6.934,0.088C6.535,0.156,6.15,0.266,5.788,0.413c-0.084,0.034-0.169,0.07-0.253,0.109
		C5.405,0.585,5.3,0.639,5.207,0.692C5.178,0.709,5.148,0.728,5.116,0.749C4.86,0.909,4.653,1.062,4.463,1.231L4.38,1.304
		C4.099,1.567,3.887,1.811,3.714,2.071C3.642,2.175,3.569,2.297,3.49,2.445L3.462,2.496C3.405,2.609,3.353,2.722,3.308,2.833
		C3.27,2.921,3.231,3.019,3.197,3.118C3.159,3.225,3.141,3.297,3.125,3.366L3.079,3.542c-0.127,0.467-0.2,0.907-0.224,1.344
		c-0.017,0.172-0.033,0.56-0.047,0.902L2.807,5.812C2.799,6.024,2.791,6.217,2.783,6.329C2.707,7.452,2.635,8.512,2.122,8.878
		c-2.055,1.463-1.851,3.861-1.842,3.961c0.042,0.443,0.397,0.555,0.826,0.555h3.758c0.254,1.395,1.529,2.46,3.063,2.46
		c1.534,0,2.809-1.065,3.063-2.46h3.758c0.429,0,0.784-0.112,0.826-0.555C15.584,12.739,15.787,10.342,13.732,8.878z M2.703,9.693
		c0.899-0.641,0.986-1.93,1.079-3.295C3.79,6.291,3.797,6.112,3.806,5.912l0.002-0.059c0,0,0.002-0.042,0.002-0.042
		c0.012-0.289,0.028-0.686,0.042-0.826c0.002-0.015,0.003-0.03,0.004-0.045c0.02-0.367,0.083-0.739,0.193-1.147L4.1,3.595
		c0.01-0.041,0.02-0.083,0.042-0.146c0.026-0.075,0.056-0.15,0.095-0.242c0.032-0.079,0.069-0.161,0.109-0.242l0.028-0.05
		c0.059-0.111,0.113-0.202,0.173-0.289c0.129-0.194,0.293-0.381,0.496-0.571L5.13,1.979c0.146-0.13,0.31-0.251,0.534-0.391
		l0.042-0.027c0.074-0.042,0.157-0.084,0.259-0.133C6.03,1.397,6.097,1.369,6.166,1.341c0.294-0.12,0.61-0.209,0.932-0.265
		C7.2,1.059,7.304,1.047,7.471,1.028c0.026-0.004,0.053-0.006,0.077-0.009c0.106-0.009,0.22-0.014,0.378-0.017
		c0.16,0.003,0.273,0.009,0.377,0.017C8.331,1.021,8.359,1.024,8.405,1.03c0.145,0.016,0.25,0.029,0.347,0.045
		c0.327,0.056,0.642,0.145,0.938,0.266c0.067,0.027,0.135,0.056,0.202,0.087c0.101,0.048,0.183,0.089,0.255,0.131l0.059,0.037
		c0.208,0.13,0.373,0.252,0.522,0.384l0.062,0.055c0.225,0.21,0.389,0.397,0.531,0.612c0.048,0.068,0.101,0.158,0.171,0.29
		l0.016,0.028c0.042,0.084,0.077,0.162,0.108,0.24c0.005,0.012,0.01,0.024,0.015,0.035c0.028,0.063,0.057,0.138,0.08,0.202
		c0.021,0.062,0.032,0.104,0.05,0.177l0.048,0.185c0.108,0.399,0.17,0.771,0.191,1.139C12,4.958,12.001,4.973,12.002,4.987
		c0.014,0.138,0.03,0.534,0.043,0.846l0.003,0.056c0.008,0.209,0.016,0.397,0.024,0.508c0.093,1.366,0.18,2.656,1.079,3.297
		c1.13,0.805,1.374,1.976,1.42,2.608H1.283C1.329,11.67,1.573,10.498,2.703,9.693z M7.927,14.853c-0.998,0-1.843-0.648-2.053-1.55
		H9.98C9.77,14.205,8.925,14.853,7.927,14.853z"/>
</svg>