<svg version="1.2" baseProfile="tiny" viewBox="0 0 14.0 13.014" xmlns:xlink="http://www.w3.org/1999/xlink" xmlns="http://www.w3.org/2000/svg">
<path style="fill:#ffffff;" d="M11.016,8.124c-0.357-0.254-0.407-0.993-0.46-1.774c-0.005-0.073-0.01-0.197-0.016-0.334
		l-0.002-0.043c-0.01-0.238-0.021-0.508-0.032-0.626c-0.017-0.306-0.068-0.612-0.156-0.937l-0.032-0.122
		c-0.013-0.055-0.026-0.104-0.05-0.174c-0.025-0.07-0.052-0.138-0.078-0.197c-0.03-0.077-0.066-0.154-0.107-0.237l-0.019-0.034
		c-0.054-0.103-0.105-0.188-0.156-0.26C9.788,3.206,9.64,3.036,9.443,2.851l-0.057-0.05C9.253,2.683,9.109,2.576,8.931,2.465
		C8.909,2.451,8.888,2.438,8.868,2.426C8.802,2.388,8.729,2.351,8.64,2.308C8.582,2.281,8.523,2.256,8.464,2.232
		c-0.252-0.103-0.52-0.179-0.798-0.226C7.585,1.992,7.502,1.982,7.386,1.969c-0.03-0.004-0.06-0.007-0.089-0.01
		C7.208,1.951,7.112,1.947,6.974,1.944C6.838,1.947,6.742,1.951,6.654,1.959c-0.03,0.003-0.059,0.006-0.088,0.01
		c-0.117,0.013-0.2,0.023-0.281,0.037C6.006,2.053,5.738,2.129,5.486,2.232C5.427,2.256,5.368,2.281,5.31,2.308
		C5.219,2.351,5.147,2.389,5.082,2.426c-0.02,0.012-0.041,0.025-0.063,0.04C4.84,2.577,4.696,2.683,4.564,2.801L4.506,2.852
		C4.31,3.035,4.163,3.205,4.043,3.386c-0.05,0.072-0.101,0.157-0.156,0.26l-0.02,0.036C3.827,3.76,3.791,3.839,3.76,3.916
		c-0.027,0.061-0.054,0.13-0.078,0.198c-0.026,0.075-0.039,0.125-0.05,0.173L3.601,4.41C3.513,4.734,3.462,5.041,3.445,5.345
		c-0.012,0.12-0.023,0.39-0.033,0.628L3.411,5.99C3.405,6.137,3.4,6.271,3.395,6.35c-0.053,0.782-0.103,1.52-0.46,1.774
		c-1.43,1.019-1.289,2.688-1.282,2.757c0.029,0.309,0.276,0.387,0.575,0.387h2.016h0.53h0.07c0.177,0.971,1.064,1.713,2.132,1.713
		s1.955-0.741,2.132-1.713h0.07h1.434h1.112c0.298,0,0.545-0.078,0.575-0.387C12.304,10.812,12.446,9.143,11.016,8.124z M6.975,12.38
		c-0.733,0-1.344-0.475-1.515-1.112H8.49C8.319,11.905,7.708,12.38,6.975,12.38z M0.921,4.952c-0.212,0-0.391-0.164-0.406-0.379
		C0.298,1.467,2.752,0.136,2.857,0.081c0.198-0.105,0.445-0.029,0.551,0.171c0.105,0.199,0.029,0.445-0.17,0.551
		C3.142,0.853,1.15,1.959,1.328,4.516C1.344,4.74,1.175,4.935,0.95,4.951C0.941,4.952,0.931,4.952,0.921,4.952z M2.303,4.825
		c-0.206,0-0.383-0.155-0.405-0.365C1.675,2.358,3.459,1.318,3.535,1.275C3.731,1.163,3.98,1.232,4.091,1.428
		C4.202,1.623,4.135,1.872,3.94,1.983l0,0C3.883,2.016,2.543,2.811,2.709,4.374c0.024,0.224-0.138,0.425-0.362,0.448
		C2.332,4.824,2.317,4.825,2.303,4.825z M13.079,4.956c-0.01,0-0.019,0-0.029-0.001c-0.225-0.016-0.394-0.211-0.378-0.435
		c0.179-2.564-1.825-3.668-1.91-3.714c-0.198-0.106-0.274-0.353-0.168-0.551c0.106-0.198,0.353-0.273,0.55-0.17
		c0.105,0.055,2.559,1.386,2.342,4.491C13.47,4.791,13.291,4.956,13.079,4.956z M11.697,4.829c-0.014,0-0.029-0.001-0.044-0.002
		c-0.224-0.024-0.387-0.225-0.363-0.449c0.168-1.577-1.215-2.382-1.229-2.39c-0.196-0.111-0.264-0.36-0.153-0.556
		c0.111-0.195,0.361-0.265,0.556-0.153c0.076,0.043,1.861,1.083,1.637,3.185C12.08,4.674,11.903,4.829,11.697,4.829z"/>
</svg>